<svg xmlns="http://www.w3.org/2000/svg" viewBox="0 0 256 256">
  <circle cx="128" cy="128" r="126" fill="#000" />
  <path fill="#FFF"
    d="M 114.00,8.64
           C 117.31,7.97 120.62,7.85 124.00,8.04
             126.79,8.20 128.48,8.57 131.00,9.84
             151.13,19.92 133.78,37.52 149.02,50.79
             160.32,60.64 174.15,49.99 178.43,65.00
             181.18,74.64 174.56,77.89 170.53,85.00
             168.04,89.40 167.90,93.09 168.01,98.00
             168.32,110.58 175.16,111.70 177.35,119.00
             179.18,125.11 175.18,131.33 169.00,132.59
             161.32,134.16 155.02,127.73 156.23,120.00
             157.29,113.15 163.57,110.68 164.47,101.00
             164.90,96.35 163.74,88.92 161.15,85.00
             158.66,81.24 155.07,78.61 153.31,75.00
             151.52,71.31 152.38,67.81 151.47,64.00
             150.02,57.90 145.62,53.04 140.00,50.19
             132.89,47.09 129.80,49.69 123.00,50.19
             115.89,50.25 109.35,48.37 104.53,42.82
             96.15,33.16 98.30,14.56 114.00,8.64 Z
           M 71.05,26.74
           C 83.63,23.96 84.87,38.48 76.98,41.40
             68.36,44.59 61.03,32.70 71.05,26.74 Z
           M 175.11,29.02
           C 187.14,24.86 190.15,38.78 182.89,42.82
             175.01,47.21 165.71,36.63 175.11,29.02 Z
           M 95.00,48.56
           C 109.99,48.13 108.65,58.70 112.85,65.00
             116.02,69.75 121.76,73.85 127.00,76.05
             137.90,80.61 143.02,72.30 150.77,79.42
             156.59,84.76 154.82,99.14 142.00,97.89
             133.73,97.08 133.51,90.41 129.45,85.00
             125.51,79.78 116.65,73.99 110.00,73.42
             105.45,73.02 100.90,75.98 96.00,75.73
             87.74,75.30 81.43,65.79 69.01,74.11
             60.71,79.67 61.81,85.15 58.47,91.00
             54.46,98.02 46.12,102.50 38.00,101.81
             12.12,99.64 12.07,60.91 38.00,59.10
             51.47,58.15 54.93,67.80 65.00,68.80
             79.33,70.23 83.35,55.32 88.10,51.43
             90.44,49.51 92.17,49.16 95.00,48.56 Z
           M 202.00,52.52
           C 223.74,49.09 234.72,72.06 223.21,86.91
             216.97,94.97 206.21,93.78 201.56,106.00
             197.93,115.55 203.55,119.45 206.01,126.00
             208.51,132.65 206.83,140.88 199.98,144.03
             198.61,144.67 196.51,145.27 195.00,145.44
             190.79,145.93 187.71,144.06 183.00,144.08
             177.30,144.10 171.27,147.76 167.00,151.33
             156.59,160.05 161.31,165.74 153.00,169.57
             146.33,172.63 137.12,168.18 138.11,158.00
             139.53,143.48 154.08,152.97 166.00,146.48
             170.66,143.95 176.07,139.83 178.43,135.00
             180.14,131.51 180.23,127.56 182.70,124.04
             186.00,119.34 191.07,118.43 195.00,112.00
             205.57,94.67 183.86,90.02 185.10,72.00
             185.82,61.47 192.18,55.22 202.00,52.52 Z
           M 100.00,79.62
           C 115.14,79.06 116.46,100.12 102.00,100.90
             102.00,100.90 92.00,100.90 92.00,100.90
             85.42,101.64 76.53,107.50 72.97,113.00
             69.32,118.65 70.59,122.21 66.61,126.90
             62.35,131.91 51.09,136.66 52.56,149.00
             53.55,157.32 60.59,160.83 63.52,168.00
             69.66,183.03 58.23,199.04 42.00,197.90
             23.94,196.64 17.16,175.42 26.94,163.17
             33.56,154.88 42.50,156.81 48.08,145.00
             54.60,131.23 38.96,125.45 43.74,113.00
             44.59,110.78 46.19,108.88 48.04,107.43
             55.41,101.62 60.40,106.33 68.00,105.89
             73.44,105.58 79.82,101.77 83.91,98.32
             93.08,90.58 88.14,83.01 100.00,79.62 Z
           M 17.06,115.02
           C 20.10,113.99 22.96,113.43 25.77,115.60
             29.95,118.82 29.95,125.95 24.89,128.69
             16.48,133.24 7.86,122.20 17.06,115.02 Z
           M 80.00,117.65
           C 88.33,116.11 95.06,121.14 93.79,130.00
             92.73,137.39 86.87,138.56 86.09,148.00
             85.61,153.85 85.87,159.92 89.13,164.99
             91.84,169.19 95.12,170.96 96.91,175.01
             98.59,178.80 97.47,181.43 98.79,186.00
             100.95,193.50 108.04,200.50 116.00,201.21
             116.00,201.21 128.00,200.04 128.00,200.04
             140.55,199.55 149.68,207.18 149.99,220.00
             150.33,234.21 142.21,242.33 128.00,241.99
             124.98,241.91 122.82,241.69 120.00,240.47
             116.70,239.04 113.93,236.86 111.80,233.96
             102.49,221.28 115.01,211.41 100.98,199.21
             89.23,188.99 75.50,200.67 71.53,184.00
             69.33,174.73 75.91,171.58 79.64,165.00
             82.23,160.41 82.06,157.06 82.00,152.00
             81.96,149.08 81.93,146.76 80.77,144.00
             77.64,136.50 66.76,129.27 75.42,120.39
             77.01,118.76 78.03,118.50 80.00,117.65 Z
           M 227.04,120.66
           C 239.15,118.79 239.51,133.43 231.96,135.57
             221.99,138.40 216.31,125.57 227.04,120.66 Z
           M 207.00,148.33
           C 208.94,148.21 210.00,148.02 212.00,148.33
             240.36,150.57 236.86,192.81 209.00,190.90
             197.80,190.14 194.51,182.14 185.00,181.20
             165.25,179.25 168.35,205.56 150.00,200.93
             140.28,198.48 140.67,190.50 137.47,185.01
             134.89,180.59 130.45,177.66 126.00,175.32
             123.09,173.80 119.33,172.35 116.00,172.34
             109.85,172.33 105.14,176.14 99.28,170.58
             95.32,166.84 95.02,159.46 98.65,155.39
             102.30,151.29 109.71,150.97 113.87,154.43
             117.82,157.71 117.76,162.00 122.21,166.96
             125.81,170.97 135.51,176.55 141.00,176.64
             144.53,176.71 149.02,174.70 152.00,174.36
             160.59,173.38 164.65,181.39 175.00,178.69
             189.06,175.01 188.33,163.60 192.85,157.02
             196.41,151.84 201.13,149.86 207.00,148.33 Z
           M 68.04,206.74
           C 80.65,203.97 81.86,218.48 73.98,221.40
             65.47,224.55 57.79,212.70 68.04,206.74 Z
           M 173.02,208.74
           C 185.39,206.04 186.77,220.19 178.96,223.26
             170.44,226.60 162.68,214.56 173.02,208.74 Z" />
</svg>